<?xml version="1.0" standalone="no"?>
<!DOCTYPE svg PUBLIC "-//W3C//DTD SVG 20010904//EN"
 "http://www.w3.org/TR/2001/REC-SVG-20010904/DTD/svg10.dtd">
<svg version="1.0" xmlns="http://www.w3.org/2000/svg"
 width="16.000000pt" height="16.000000pt" viewBox="0 0 16.000000 16.000000"
 preserveAspectRatio="xMidYMid meet">

<g transform="translate(0.000000,16.000000) scale(0.100000,-0.100000)"
fill="#000000" stroke="none">
<path d="M55 142 l-29 -15 23 -18 c28 -23 29 -23 63 -1 l27 17 -28 16 c-25 15
-31 15 -56 1z"/>
<path d="M10 68 c0 -26 6 -37 30 -50 l30 -17 0 34 c0 24 -7 39 -22 49 -32 23
-38 20 -38 -16z"/>
<path d="M113 83 c-16 -11 -23 -26 -23 -49 l0 -33 30 17 c24 13 30 24 30 50 0
36 -5 38 -37 15z"/>
</g>
</svg>
